<svg id="wizard-logo" viewBox="0 0 19 16" xmlns="http://www.w3.org/2000/svg"><defs><linearGradient id="wizard-logo-gradient" x1="14298%" x2="21209%" y1="30379%" y2="30379%"><stop offset="0%" stop-color="#D5AC4F"></stop><stop offset="2%" stop-color="#D7B053"></stop><stop offset="5%" stop-color="#DEBC61"></stop><stop offset="7%" stop-color="#EAD077"></stop><stop offset="10%" stop-color="#FAEC95"></stop><stop offset="11%" stop-color="#FFF59F"></stop><stop offset="11%" stop-color="#FCF19A"></stop><stop offset="13%" stop-color="#ECD77D"></stop><stop offset="15%" stop-color="#E0C469"></stop><stop offset="17%" stop-color="#D8B95C"></stop><stop offset="19%" stop-color="#D6B558"></stop><stop offset="29%" stop-color="#D3AB50"></stop><stop offset="34%" stop-color="#E4BF64"></stop><stop offset="38%" stop-color="#F3D075"></stop><stop offset="51%" stop-color="#FFF49F"></stop><stop offset="56%" stop-color="#EDD57E"></stop><stop offset="60%" stop-color="#DFBE64"></stop><stop offset="64%" stop-color="#D7B054"></stop><stop offset="67%" stop-color="#D4AB4F"></stop><stop offset="77%" stop-color="#F3D076"></stop><stop offset="80%" stop-color="#F5D67D"></stop><stop offset="84%" stop-color="#FAE891"></stop><stop offset="87%" stop-color="#FFF6A2"></stop><stop offset="90%" stop-color="#EDD98A"></stop><stop offset="94%" stop-color="#DEC075"></stop><stop offset="97%" stop-color="#D4B068"></stop><stop offset="100%" stop-color="#D1AB63"></stop></linearGradient></defs><path fill="none" fill-rule="evenodd" stroke="url(#wizard-logo-gradient)" stroke-width=".5" d="M10.23 16a.92.92 0 0 1-.107-.148 3759.435 3759.435 0 0 1-3.226-7.337 2468.7 2468.7 0 0 0-1.844-4.191A.838.838 0 0 0 5 4.237v-.15c.176-.138.282-.114.37.088l4.556 10.36.378.861c.037-.082.064-.14.089-.2 1.082-2.598 2.164-5.197 3.243-7.795 0-.014.013-.027.018-.04a.165.165 0 0 1 .09-.102.186.186 0 0 1 .141-.006.164.164 0 0 1 .102.089.147.147 0 0 1-.005.13c-.11.271-.223.543-.336.814-1.046 2.514-2.093 5.027-3.14 7.538-.032.06-.068.117-.11.17L10.23 16zm6.312-.004a.899.899 0 0 1-.115-.163c-.897-2.311-1.493-4.013-2.387-6.33a.497.497 0 0 1-.035-.11.135.135 0 0 1 .017-.11.146.146 0 0 1 .093-.063.16.16 0 0 1 .202.075c.026.051.048.104.066.158l2.18 5.8c.015.039.033.077.056.134l.445-.991 4.581-10.233.023-.049a.168.168 0 0 1 .09-.098.18.18 0 0 1 .137-.004c.044.016.078.05.095.093a.153.153 0 0 1-.01.129c-.11.252-.226.505-.339.764l-4.85 10.837c-.033.058-.071.113-.114.165l-.135-.004zm-.004-5.61c.124-.314.25-.603.366-.892l2.777-6.77c.049-.116.131-.164.224-.128.092.036.124.129.066.276l-2.6 6.338c-.223.542-.445 1.084-.666 1.627-.035.082-.069.163-.176.163-.107 0-.147-.085-.178-.172-.968-2.69-1.936-5.38-2.902-8.071-.012-.034-.026-.066-.047-.121-.069.176-.125.33-.187.484-.968 2.576-1.937 5.151-2.907 7.726a.271.271 0 0 1-.125.142.155.155 0 0 1-.15-.038.272.272 0 0 1-.024-.2c.088-.256.19-.513.288-.778l2.936-7.806c.028-.072.051-.146.139-.162.087-.017.16.023.204.145.194.534.386 1.07.577 1.604l2.349 6.529c.003.027.015.052.036.104zM10 8.826c-.012.093-.055.151-.15.168-.09.022-.184-.019-.217-.094-.059-.113-.11-.228-.162-.342L7.028 3.27c-.064-.14-.016-.247.121-.267.105-.017.207.04.232.129a2737.1 2737.1 0 0 1 2.576 5.571c.007.046.03.09.043.122z" transform="translate(-4 -1)"></path></svg>