<svg xmlns="http://www.w3.org/2000/svg" width="0" height="0"><defs xmlns="http://www.w3.org/2000/svg"><linearGradient x1="50%" x2="50%" y1="0%" y2="100%" id="svg_wavehelix1"><stop stop-color="#FFD8C8" offset="0%"></stop><stop stop-opacity="0" stop-color="#FFF" offset="100%"></stop></linearGradient><linearGradient x1="50%" x2="50%" y1="0%" y2="100%" id="svg_wavehelix2"><stop stop-color="#CBEAFF" offset="0%"></stop><stop stop-opacity="0" stop-color="#CBEAFF" offset="100%"></stop></linearGradient></defs><symbol id="helix-waves" viewBox="0 0 283 33"><path opacity="0.7" d="m0,15.671c20.035,-10.53 38.73,-15.754 56.083,-15.67c26.03,0.125 57.277,16.755 90.927,15.67c33.649,-1.084 53.204,-15.67 88.218,-15.67c23.343,0 39.6,5.223 48.772,15.67l0,36.329l-284,0l0,-36.329z" fill-rule="evenodd" fill-opacity="0.7" fill="url(#svg_wavehelix1)"></path><path opacity="0.7" d="m282.67117,1.453261c-19.91805,6.150564 -38.503921,9.201524 -55.755626,9.153473c-25.878055,-0.074153 -56.942657,-9.787038 -90.396231,-9.153473c-33.45258,0.633565 -52.893432,9.15288 -87.703044,9.15288c-23.20674,0 -39.368843,-3.05096 -48.487303,-9.15288l0,39.123237l282.342205,0l0,-39.123237z" fill-rule="evenodd" fill-opacity="0.6" fill="url(#svg_wavehelix2)"></path></symbol><symbol id="streamline-waves" viewBox="0 0 280 80" preserveAspectRatio="xMinYMin slice"><path d="m-0.12,0.634c27.902,2.739 54.53,12.678 79.875,29.816c38.021,25.709 115.726,62.069 202.43,8.74l0.614,91.642l-282.919,0l0,-130.199l0,0.001z" fill-rule="evenodd" fill-opacity="0.373" fill="#FFF"></path><path d="m-1.018915,24.885298c47.186791,-7.675133 89.585992,-8.578945 127.1976,-2.711438c56.417413,8.801261 85.219531,26.303683 157.841409,24.063648l-0.25288,41.401952l-284.787137,0l0,-62.755326l0.001007,0.001164z" fill-rule="evenodd" fill-opacity="0.401" fill="#FFF"></path></symbol><symbol id="tag" viewBox="0 0 18 18"><path fill="#000" fill-rule="evenodd" d="M6.938 18.001c-.423 0-.82-.164-1.118-.461L.46 12.18A1.568 1.568 0 0 1 0 11.063c0-.423.164-.82.461-1.117L9.507.9C10.02.387 10.953 0 11.68 0h4.74C17.292 0 18 .709 18 1.58v4.741c0 .725-.387 1.659-.899 2.172l-9.046 9.046A1.568 1.568 0 0 1 6.938 18v.001zM11.712.967h4.798c.294 0 .533.24.533.533v4.796c0 .443-.286 1.131-.598 1.444l-9.15 9.15c-.1.1-.234.155-.378.155a.528.528 0 0 1-.377-.154L1.12 11.47a.528.528 0 0 1-.155-.376c0-.144.054-.277.154-.378l9.15-9.15c.313-.314 1-.599 1.443-.599zm2.553 3.87c.871 0 1.58-.708 1.58-1.58 0-.87-.709-1.58-1.58-1.58-.872 0-1.58.71-1.58 1.58 0 .872.708 1.58 1.58 1.58zm.003-2.195a.619.619 0 1 1 0 1.238.619.619 0 0 1 0-1.238zM7.713 9.387c.872 0 1.58-.709 1.58-1.58 0-.871-.708-1.58-1.58-1.58-.87 0-1.58.709-1.58 1.58 0 .871.71 1.58 1.58 1.58zm.003-2.196a.619.619 0 1 1 0 1.238.619.619 0 0 1 0-1.238zm-.003 7.383c.872 0 1.58-.71 1.58-1.58 0-.872-.708-1.581-1.58-1.581-.87 0-1.58.709-1.58 1.58 0 .872.71 1.58 1.58 1.58zm.003-2.197a.619.619 0 1 1 0 1.238.619.619 0 0 1 0-1.238zm2.512-1.6h.455v-.91H4.768v.91h5.46z" opacity=".54"></path></symbol><symbol id="pencil" viewBox="0 0 18 18"><path fill="#EE2A24" fill-rule="evenodd" d="M17.215.785A2.663 2.663 0 0 0 15.32 0c-.716 0-1.39.278-1.896.785l-11.49 11.49a.447.447 0 0 0-.104.165L.027 17.396a.45.45 0 0 0 .578.577l4.956-1.802a.46.46 0 0 0 .165-.105l11.49-11.49c.506-.506.784-1.18.784-1.896s-.278-1.39-.785-1.896zM5.16 15.359l-3.955 1.438 1.438-3.955 9.974-9.974 2.517 2.517-9.974 9.974zm11.418-11.42l-.807.807-2.517-2.517.807-.807c.336-.336.783-.52 1.258-.52s.922.184 1.258.52c.336.336.521.783.521 1.258s-.185.922-.52 1.258v.001z"></path></symbol><symbol id="food" viewBox="0 0 22 22"><g fill="none" fill-rule="evenodd"><path d="M-1-1h24v24H-1z"></path><path fill="#000" d="M17.302 1.93l-.506.849c3.8 2.644 5.181 7.637 3.123 11.883-.047.142-.142.189-.284.236-.048.048-.048.048-.095.048-.095 0-.19 0-.237-.048L4.173 5.666c-.094-.047-.19-.19-.237-.331a.368.368 0 0 1 .095-.379c1.755-2.367 4.553-3.835 7.494-3.835 1.565 0 3.09.398 4.465 1.157l.503-.843-.913-.558a.478.478 0 0 1-.156-.651.475.475 0 0 1 .65-.157l2.592 1.586a.478.478 0 0 1 .156.65.475.475 0 0 1-.65.157l-.87-.532zM.76 17.881H.466a.475.475 0 0 1 0-.947h20.41a.475.475 0 0 1 0 .947h-.34v.9c.047 1.846-.949 3.219-2.182 3.219H2.988c-1.233 0-2.23-1.42-2.23-3.22v-.899zm1.047.103v.843c0 1.11.61 2.132 1.266 2.132h15.149c.656 0 1.266-.977 1.266-2.132v-.843H1.806zm3.51-12.841l13.9 8.368a8.14 8.14 0 0 0-3.348-10.106 8.208 8.208 0 0 0-4.23-1.189c-2.464 0-4.788 1.052-6.322 2.927zm1.968 11.128l-.65-.757s.5-.521-.35-2.083c-.451-.758-.551-1.468-.301-2.13.3-.853 1.151-1.232 1.201-1.232l.4.852-.2-.426.2.426s-.5.237-.65.71c-.15.38-.05.805.25 1.326 1.252 2.32.2 3.22.1 3.314zm-2.988 0l-.65-.71s.5-.52-.35-2.083c-.45-.758-.55-1.468-.35-2.13.3-.853 1.15-1.231 1.2-1.231l.4.852-.2-.426.2.426s-.5.236-.65.71c-.15.379-.05.805.25 1.326 1.3 2.272.25 3.172.15 3.266z"></path></g></symbol></svg>