<svg xmlns="http://www.w3.org/2000/svg" width="16" height="16" viewBox="0 0 16 16"> <path fill="#979797" fill-rule="nonzero" d="M13.442 2.308A7.816 7.816 0 0 0 7.875 0C5.773 0 3.793.82 2.308 2.308A7.835 7.835 0 0 0 0 7.875c0 2.102.82 4.082 2.308 5.567a7.835 7.835 0 0 0 5.567 2.308c2.102 0 4.082-.82 5.567-2.308a7.835 7.835 0 0 0 2.308-5.567c0-2.102-.82-4.082-2.308-5.567zm1.594 5.213h-3.053c-.03-1.215-.2-2.385-.498-3.423a7.81 7.81 0 0 0 1.623-1.118 7.152 7.152 0 0 1 1.928 4.541zM8.23 8.23h3.05a12.926 12.926 0 0 1-.447 3.146 7.95 7.95 0 0 0-2.603-.565V8.229zM12.6 2.488a7.161 7.161 0 0 1-1.337.929 8.21 8.21 0 0 0-.415-.964c-.305-.605-.652-1.1-1.035-1.48A7.139 7.139 0 0 1 12.6 2.489zM8.229.816c.736.164 1.43.843 1.99 1.948.15.3.285.617.404.955a7.213 7.213 0 0 1-2.394.537V.816zm2.606 3.581c.264.952.415 2.015.44 3.128H8.23V4.966a7.954 7.954 0 0 0 2.606-.569zM7.521 7.521h-3.05c.026-1.112.177-2.176.44-3.127a7.807 7.807 0 0 0 2.607.566V7.52h.003zM7.525.816v3.44a7.196 7.196 0 0 1-2.395-.537c.119-.338.254-.656.405-.955C6.095 1.66 6.789.98 7.525.816zM5.94.974c-.383.38-.73.877-1.035 1.478-.151.303-.29.624-.415.965a7.268 7.268 0 0 1-1.337-.93A7.139 7.139 0 0 1 5.94.975zM2.645 2.98A7.935 7.935 0 0 0 4.27 4.098a13.55 13.55 0 0 0-.499 3.423H.717A7.152 7.152 0 0 1 2.645 2.98zM.717 8.229H3.77c.03 1.224.203 2.397.505 3.442a7.739 7.739 0 0 0-1.617 1.112A7.14 7.14 0 0 1 .717 8.23zm2.45 5.046c.41-.36.857-.669 1.33-.923.122.332.257.65.408.945.305.605.652 1.1 1.035 1.482a7.174 7.174 0 0 1-2.774-1.504zm4.358 1.659c-.736-.164-1.43-.843-1.99-1.948a8.262 8.262 0 0 1-.399-.936 7.095 7.095 0 0 1 2.389-.533v3.417zM4.92 11.375a12.926 12.926 0 0 1-.447-3.146h3.05v2.58a7.79 7.79 0 0 0-2.603.566zm3.31 3.559v-3.417c.83.042 1.637.222 2.389.533-.119.331-.25.643-.399.936-.559 1.105-1.253 1.784-1.99 1.948zm1.585-.158c.383-.38.73-.877 1.035-1.482a8.71 8.71 0 0 0 .409-.945c.472.254.919.563 1.33.923a7.091 7.091 0 0 1-2.774 1.504zm3.285-1.993a7.863 7.863 0 0 0-1.616-1.112c.302-1.045.475-2.221.504-3.442h3.054a7.174 7.174 0 0 1-1.942 4.554z"></path> </svg>