<svg xmlns="http://www.w3.org/2000/svg" width="0" height="0" style="top: 0px; left: 0px; position: absolute; height: 0px; width: 0px;"><defs><linearGradient id="a" x1="19.215%" x2="69.302%" y1="-35.157%" y2="93.537%"><stop offset="0%" stop-color="#19A3B4"></stop><stop offset="34.817%" stop-color="#5BC3AF"></stop><stop offset="92.234%" stop-color="#C9F7A6"></stop><stop offset="100%" stop-color="#D7FEA5"></stop></linearGradient><path id="b" d="M17.453 8.308L2.697.248C2.28.02 1.893-.032 1.58.065L13.668 12.07l3.786-3.762"></path><linearGradient id="c" x1="-14.698%" x2="74.844%" y1="-114.322%" y2="114.156%"><stop offset="0%" stop-color="#FC227C"></stop><stop offset="100%" stop-color="#FEEB7B"></stop></linearGradient><linearGradient id="d" x1="28.151%" x2="48.188%" y1="-14.814%" y2="82.894%"><stop offset="0%" stop-color="#0E4DA0"></stop><stop offset="100%" stop-color="#6BFED4"></stop></linearGradient><path id="e" d="M1.58.065C1.13.205.84.655.84 1.34l.004 21.49c0 .675.28 1.12.717 1.268l12.107-12.026L1.58.065"></path><linearGradient id="f" x1="132.245%" x2="5.959%" y1="16.466%" y2="126.31%"><stop offset="0%" stop-color="#FC472E"></stop><stop offset=".332%" stop-color="#FC472E"></stop><stop offset="100%" stop-color="#893CD8"></stop></linearGradient><path id="g" d="M1.56 24.098c.315.106.71.056 1.137-.177l14.773-8.07-3.803-3.78L1.56 24.1"></path></defs><symbol id="ios" viewBox="0 0 18 22"><path d="M13.42 4.74c2.46 0 4.032 2.38 4.032 2.38s-2.4 1.303-2.4 4.13c0 3.357 3.015 4.334 3.015 4.334s-2.38 5.645-5.05 5.645c-1.503 0-1.604-.865-3.6-.865-1.734 0-2.32.864-3.64.864C3.257 21.23 0 15.725 0 11.25c0-4.648 3.297-6.51 5.364-6.51 1.815 0 2.57 1.07 4.032 1.07 1.23 0 2.2-1.07 4.023-1.07zM12.995 0c.363 2.28-1.704 5.097-4.174 5.005-.363-2.9 2.3-4.852 4.174-5.005z"></path></symbol><symbol id="android" viewBox="0 0 24 25"><g fill="none" fill-rule="evenodd"><use fill="url(#a)" xlink:href="#b"></use><path fill="url(#c)" d="M17.472 15.85l5.037-2.75c1.02-.56 1.02-1.47 0-2.03l-5.057-2.762-3.786 3.762 3.805 3.78"></path><use fill="url(#d)" xlink:href="#e"></use><use fill="url(#f)" xlink:href="#g"></use></g></symbol></svg>