<svg xmlns="http://www.w3.org/2000/svg" style="position: absolute; top: 0px; left: 0px; width: 0px; height: 0px;"><symbol id="wizard-discount-icon" viewBox="0 0 18 18"><defs><linearGradient id="wizard-discount-icon-gradient" x1="0%" y1="2.166%" y2="100%"><stop offset="0%" stop-color="#D6AD4F"></stop><stop offset="4.329%" stop-color="#D6B153"></stop><stop offset="13.27%" stop-color="#D7B659"></stop><stop offset="16.27%" stop-color="#DFBD61"></stop><stop offset="23.75%" stop-color="#EECC70"></stop><stop offset="29.01%" stop-color="#F4D176"></stop><stop offset="42.96%" stop-color="#FFF7A6"></stop><stop offset="45.21%" stop-color="#F8E897"></stop><stop offset="51.42%" stop-color="#E8CD77"></stop><stop offset="57.27%" stop-color="#DDBA61"></stop><stop offset="62.54%" stop-color="#D7AF53"></stop><stop offset="66.74%" stop-color="#D5AC4E"></stop><stop offset="100%" stop-color="#D3AC64"></stop></linearGradient></defs><g fill="none" fill-rule="evenodd"><path fill="#000" d="M9 18c-.578 0-.99-.47-1.376-.883-.22-.249-.468-.525-.66-.58-.193-.055-.551.055-.881.165-.33.11-.689.221-1.019.221-.22 0-.413-.055-.578-.138-.495-.276-.605-.883-.715-1.435-.083-.332-.138-.718-.276-.856-.137-.138-.523-.221-.853-.276-.523-.11-1.156-.249-1.431-.718-.275-.47-.083-1.077.083-1.574.11-.33.22-.69.165-.883-.055-.193-.33-.442-.578-.663C.468 10.021 0 9.58 0 9c0-.58.468-.994.88-1.38.248-.221.524-.47.579-.663.055-.193-.055-.58-.165-.883C1.128 5.549.936 4.969 1.21 4.5c.275-.497.88-.607 1.431-.718.33-.083.716-.138.853-.276.138-.138.22-.524.276-.856.11-.524.247-1.16.715-1.435.165-.083.358-.138.578-.138.33 0 .688.11 1.019.22.33.111.715.221.88.166.193-.055.44-.331.66-.58C7.983.47 8.423 0 9 0s.99.47 1.376.883c.22.249.468.525.66.58.193.055.551-.055.881-.165.33-.11.689-.221 1.019-.221.22 0 .413.055.578.138.495.276.605.883.715 1.435.083.332.138.718.276.856.137.138.523.221.853.276.523.11 1.156.249 1.431.718.275.47.083 1.077-.083 1.574-.11.33-.22.69-.165.883.055.193.33.442.578.663.413.359.881.8.881 1.38 0 .58-.468.994-.88 1.38-.248.221-.524.47-.579.663-.055.193.055.58.165.883.166.525.358 1.105.083 1.574-.275.497-.88.607-1.431.718-.33.083-.716.138-.853.276-.138.138-.22.524-.276.856-.11.524-.247 1.16-.715 1.435a1.276 1.276 0 0 1-.578.138c-.33 0-.688-.11-1.019-.22-.33-.111-.715-.221-.88-.166-.193.055-.44.331-.66.58C9.99 17.53 9.577 18 9 18z"></path><path fill="url(#wizard-discount-icon-gradient)" d="M11.233 6l.728.728-5.49 5.49-.729-.728L11.232 6zM6.854 8.63C5.824 8.63 5 7.824 5 6.815 5 5.807 5.824 5 6.854 5c1.03 0 1.854.807 1.854 1.815 0 1.009-.858 1.815-1.854 1.815zm0-2.655a.827.827 0 0 0-.824.807c0 .436.378.806.824.806.446 0 .824-.37.824-.806a.827.827 0 0 0-.824-.807zM11.146 13c-1.03 0-1.854-.807-1.854-1.815 0-1.009.824-1.815 1.854-1.815 1.03 0 1.854.806 1.854 1.815C13 12.193 12.176 13 11.146 13zm0-2.622a.827.827 0 0 0-.824.807c0 .437.378.807.824.807.446 0 .824-.37.824-.807a.827.827 0 0 0-.824-.807z"></path></g></symbol><symbol id="wizard-profile-circle" viewBox="0 0 79 110"><defs><linearGradient id="wizard-profile-circle-grad" x1="100.003%" x2="-13.186%" y1="49.905%" y2="49.905%"><stop offset="0%" stop-color="#FFF"></stop><stop offset="100%"></stop></linearGradient></defs><path fill="url(#wizard-profile-circle-grad)" fill-rule="nonzero" d="M281 175.571c.277-2.12.461-4.15.738-6.27 1.844-13.927 7.47-26.192 17.338-36.522 8.023-8.392 17.338-14.848 28.59-18.537 6.178-2.029 12.542-3.135 19.09-3.596 4.888-.277 9.868-.462 14.756-.646.922 0 1.752.092 2.305 1.014.738 1.292-.092 2.675-1.752 2.675-4.058.184-8.208.184-12.266.461-25.638 1.199-44.913 12.635-57.548 34.492-4.242 7.286-6.179 15.31-7.009 23.702-1.014 10.236-.46 20.381 2.86 30.157 7.562 22.318 23.24 36.244 46.48 42.054 6.272 1.568 12.727 2.121 19.183 2.306 8.3.184 16.693.092 24.993.276.645 0 1.475.277 1.936.738.37.37.37 1.2.185 1.752-.277.923-1.107 1.107-2.03 1.107h-18.997c-7.47 0-14.848-.46-22.134-1.752-13.742-2.306-25.638-8.116-35.69-17.615-10.514-9.868-16.97-21.857-19.552-35.875-.554-2.951-.738-5.995-1.107-8.946-.092-.461-.185-.83-.277-1.291-.092-3.32-.092-6.548-.092-9.684z" transform="translate(-281 -110)"></path></symbol><symbol id="wizard-partner" width="148" height="20" viewBox="0 0 148 20"><g fill="none" fill-rule="evenodd"><path fill="#000" d="M2 0h144a2 2 0 0 1 2 2v16a2 2 0 0 1-2 2H2a2 2 0 0 1-2-2V2a2 2 0 0 1 2-2z"></path><text fill="#FFF" font-family="Brown-Bold, Brown" font-size="11" font-weight="bold" letterSpacing=".393"><tspan x="39.092" y="14">WIZARD MEMBER</tspan></text><path stroke="#E2A966" stroke-width=".5" d="M11.014 16.996a.951.951 0 0 1-.103-.153A4042.488 4042.488 0 0 1 7.82 9.267C7.23 7.824 6.642 6.38 6.05 4.939A.88.88 0 0 0 6 4.849v-.154c.168-.144.27-.12.355.09l4.367 10.699.363.888c.035-.084.061-.144.085-.206 1.037-2.683 2.074-5.367 3.109-8.05 0-.015.012-.028.017-.04a.167.167 0 0 1 .222-.113.162.162 0 0 1 .092.226c-.105.28-.214.56-.322.841l-3.01 7.785c-.03.061-.066.12-.106.176l-.158.005zm6.613 0a.93.93 0 0 1-.114-.168c-.89-2.39-1.48-4.148-2.366-6.543a.53.53 0 0 1-.035-.115.145.145 0 0 1 .11-.178.157.157 0 0 1 .2.078c.025.053.046.107.064.163l2.162 5.995c.015.04.032.08.056.138l.44-1.024A55251.36 55251.36 0 0 1 22.71 4.714a.17.17 0 0 1 .226-.105.164.164 0 0 1 .084.23c-.11.26-.224.521-.336.789l-4.81 11.201c-.032.06-.07.117-.112.171l-.134-.004zm.155-5.483c.13-.318.261-.612.384-.905l2.907-6.872c.05-.12.137-.167.233-.13.097.036.13.13.07.28l-2.721 6.434c-.234.55-.467 1.1-.698 1.651-.037.084-.072.166-.184.166s-.154-.086-.187-.175a15604.53 15604.53 0 0 1-3.037-8.194l-.05-.122c-.071.178-.13.335-.195.492L11.26 11.98a.278.278 0 0 1-.13.144.166.166 0 0 1-.157-.039.269.269 0 0 1-.026-.202c.092-.261.198-.522.301-.79l3.074-7.926c.029-.073.054-.147.145-.164.091-.017.168.023.214.147.203.543.404 1.086.604 1.628l2.458 6.629c.004.027.016.053.038.105zm-7.508-2.01c-.01.095-.048.154-.13.17a.157.157 0 0 1-.19-.095c-.051-.114-.096-.23-.141-.347L7.678 3.87c-.056-.141-.014-.25.106-.27.091-.018.18.04.202.13a3005.374 3005.374 0 0 1 2.25 5.65c.007.047.027.091.038.124z"></path><rect width="1" height="14" x="30" y="3" fill="#FFF" opacity=".3" rx=".5"></rect></g></symbol></svg>